<?xml version="1.0" encoding="utf-8"?>
<svg width="920" height="170" viewBox="0 0 920 170" xmlns="http://www.w3.org/2000/svg" role="img" aria-label="Mithun S's GitHub stats">
  <defs>
    <linearGradient id="g" x1="0" x2="1" y1="0" y2="1">
      <stop offset="0%" stop-color="#ff7ab6"/>
      <stop offset="100%" stop-color="#7a5cff"/>
    </linearGradient>
    <style>
      .bg{fill:#0b1220}
      .card{fill:#0f1724; rx:12px;}
      .title{font:700 20px 'Segoe UI', Roboto, Arial; fill:#ff79c6;}
      .name{font:600 16px 'Segoe UI', Roboto, Arial; fill:#cbd5e1;}
      .meta{font:500 13px 'Segoe UI', Roboto, Arial; fill:#94a3b8;}
      .big{font:700 26px 'Segoe UI', Roboto, Arial; fill:#8be9fd;}
      .small{font:500 12px 'Segoe UI', Roboto, Arial; fill:#cbd5e1;}
      .label{font:600 11px 'Segoe UI', Roboto, Arial; fill:#94a3b8;}
      .chip{font:600 12px 'Segoe UI', Roboto, Arial; fill:#0b1220;}
      .muted{fill:#6b7280;}
      .avatar-mask{rx:8;}
    </style>
  </defs>

  <rect width="100%" height="100%" fill="#071327" />
  <g transform="translate(14,14)">
    <rect width="892" height="142" rx="12" fill="#0b1220"/>
    <g transform="translate(18,16)">
      <!-- left: avatar + basic name -->
      <g transform="translate(0,0)">
        <rect width="120" height="120" rx="12" fill="url(#g)" opacity="0.08"></rect>
        <image href="https://avatars.githubusercontent.com/u/139942878?v=4" x="6" y="6" width="108" height="108" clip-path="url(#a)"/>
      </g>

      <!-- text to the right of avatar -->
      <g transform="translate(140,8)">
        <text x="0" y="20" class="title">Mithun S</text>
        <text x="0" y="44" class="name">@Mithun055</text>
        <g transform="translate(0,60)">
          <!-- total contributions big -->
          <text x="0" y="28" class="big">1,031</text>
          <text x="0" y="48" class="small">Total contributions (all time)</text>
        </g>
      </g>
    </g>

    <!-- bottom stats row -->
    <g transform="translate(18,110)">
      <!-- card-like chips -->
      <g transform="translate(0,0)">
        <rect x="0" y="0" width="864" height="40" rx="8" fill="#07182a" />
        <g transform="translate(16,8)">
          <text x="0" y="14" class="label">Commits</text>
          <text x="0" y="34" class="chip">1,006</text>
        </g>

        <g transform="translate(160,8)">
          <text x="0" y="14" class="label">Pull Requests</text>
          <text x="0" y="34" class="chip">3</text>
        </g>

        <g transform="translate(320,8)">
          <text x="0" y="14" class="label">PR Reviews</text>
          <text x="0" y="34" class="chip">0</text>
        </g>

        <g transform="translate(480,8)">
          <text x="0" y="14" class="label">Issues</text>
          <text x="0" y="34" class="chip">0</text>
        </g>

        <g transform="translate(640,8)">
          <text x="0" y="14" class="label">Private contribs</text>
          <text x="0" y="34" class="chip">0</text>
        </g>

        <g transform="translate(724,8)">
          <rect x="-8" y="-6" width="140" height="32" rx="6" fill="url(#g)"/>
          <text x="0" y="14" class="chip" style="fill:#fff">11/28/2025</text>
        </g>
      </g>
    </g>
  </g>
</svg>