<?xml version="1.0" encoding="utf-8"?>
<svg width="980" height="364" viewBox="0 0 980 364" xmlns="http://www.w3.org/2000/svg" role="img" aria-label="Mithun S stats">
  <rect width="100%" height="100%" fill="#0b1220" />
  
<g>
  <rect x="20" y="20" width="940" height="160" rx="10" fill="#0f1113" stroke="#232428" stroke-width="1.5"/>
  <text x="40" y="48" font-family="Segoe UI, Roboto" font-weight="700" font-size="20" fill="#ff9a3c">🔥 My Stats :</text>

  <!-- left: total contributions -->
  <g transform="translate(40, 64)" font-family="Segoe UI, Roboto">
    <text x="0" y="0" font-size="34" font-weight="800" fill="#ffffff">1,046</text>
    <text x="0" y="28" font-size="13" fill="#9aa6b2">Total Contributions</text>
    <text x="0" y="48" font-size="12" fill="#9aa6b2">Jan 1, 2008 - Present</text>
  </g>

  <!-- center: current streak ring -->
  <g transform="translate(552, 48)">
    <!-- background ring -->
    <circle cx="48" cy="48" r="48" stroke="#2e1d20" stroke-width="12" fill="none"/>
    <!-- base ring -->
    <circle cx="48" cy="48" r="48" stroke="#3a2832" stroke-width="12" fill="none"/>
    <!-- progress -->
    <g transform="rotate(-90 48 48)">
      <circle cx="48" cy="48" r="48" stroke="#ff9a3c" stroke-width="12" fill="none" stroke-linecap="round"
        stroke-dasharray="0 301.59289474462014"/>
    </g>
    <text x="48" y="48" text-anchor="middle" dominant-baseline="central" font-size="28" font-weight="800" fill="#fff">0</text>
    <text x="48" y="84" text-anchor="middle" font-size="12" fill="#9aa6b2">Current Streak</text>
  </g>

  <!-- right: longest streak -->
  <g transform="translate(688, 76)" font-family="Segoe UI, Roboto">
    <text x="0" y="0" font-size="34" font-weight="800" fill="#ffffff">9</text>
    <text x="0" y="30" font-size="13" fill="#9aa6b2">Longest Streak</text>
  </g>
</g>

  
<g>
  <rect x="20" y="196" width="940" height="140" rx="10" fill="#0f1113" stroke="#232428" stroke-width="1.5"/>
  <text x="38" y="224" font-family="Segoe UI, Roboto" font-weight="700" font-size="18" fill="#ff9a3c">Most Used Languages</text>

  <!-- language bar -->
  <rect x="48" y="228" width="527" height="18" rx="6" fill="#e34c26"/><rect x="575" y="228" width="220" height="18" rx="6" fill="#3572A5"/><rect x="795" y="228" width="60" height="18" rx="6" fill="#f1e05a"/><rect x="855" y="228" width="44" height="18" rx="6" fill="#7a5cff"/><rect x="899" y="228" width="29" height="18" rx="6" fill="#f34b7d"/><rect x="928" y="228" width="24" height="18" rx="6" fill="#563d7c"/>

  <!-- labels -->
  <g transform="translate(48, 256)"><rect x="0" y="-8" width="10" height="10" rx="5" fill="#e34c26"></rect><text x="14" y="0" font-family="Segoe UI, Roboto" font-size="12" fill="#9aa6b2">HTML 58.3%</text></g><g transform="translate(188, 256)"><rect x="0" y="-8" width="10" height="10" rx="5" fill="#3572A5"></rect><text x="14" y="0" font-family="Segoe UI, Roboto" font-size="12" fill="#9aa6b2">Python 24.3%</text></g><g transform="translate(328, 256)"><rect x="0" y="-8" width="10" height="10" rx="5" fill="#f1e05a"></rect><text x="14" y="0" font-family="Segoe UI, Roboto" font-size="12" fill="#9aa6b2">JavaScript 6.7%</text></g><g transform="translate(468, 256)"><rect x="0" y="-8" width="10" height="10" rx="5" fill="#7a5cff"></rect><text x="14" y="0" font-family="Segoe UI, Roboto" font-size="12" fill="#9aa6b2">Jupyter Notebook 4.8%</text></g><g transform="translate(608, 256)"><rect x="0" y="-8" width="10" height="10" rx="5" fill="#f34b7d"></rect><text x="14" y="0" font-family="Segoe UI, Roboto" font-size="12" fill="#9aa6b2">C++ 3.2%</text></g><g transform="translate(748, 256)"><rect x="0" y="-8" width="10" height="10" rx="5" fill="#563d7c"></rect><text x="14" y="0" font-family="Segoe UI, Roboto" font-size="12" fill="#9aa6b2">CSS 2.6%</text></g>
</g>

</svg>